HIERARCHY
ROOT root
{
	OFFSET 0.000000 0.000000 0.000000
	CHANNELS 6 Xposition Yposition Zposition Zrotation Yrotation Xrotation
	JOINT lhip
	{
		OFFSET 0.058581 -0.082280 -0.017664
		CHANNELS 3 Zrotation Yrotation Xrotation
		JOINT lknee
		{
			OFFSET 0.043451 -0.386469 0.008037
			CHANNELS 3 Zrotation Yrotation Xrotation
			JOINT lankle
			{
				OFFSET -0.014790 -0.426874 -0.037428
				CHANNELS 3 Zrotation Yrotation Xrotation
				JOINT ltoe
				{
					OFFSET 0.041054 -0.060286 0.122042
					CHANNELS 3 Zrotation Yrotation Xrotation
					End Site
					{
						OFFSET 0.000000 0.000000 0.000000
					}
				}
			}
		}
	}
	JOINT rhip
	{
		OFFSET -0.060310 -0.090513 -0.013543
		CHANNELS 3 Zrotation Yrotation Xrotation
		JOINT rknee
		{
			OFFSET -0.043257 -0.383688 -0.004843
			CHANNELS 3 Zrotation Yrotation Xrotation
			JOINT rankle
			{
				OFFSET 0.019056 -0.420046 -0.034562
				CHANNELS 3 Zrotation Yrotation Xrotation
				JOINT rtoe
				{
					OFFSET -0.034840 -0.062106 0.130323
					CHANNELS 3 Zrotation Yrotation Xrotation
					End Site
					{
						OFFSET 0.000000 0.000000 0.000000
					}
				}
			}
		}
	}
	JOINT lowerback
	{
		OFFSET 0.004439 0.124404 -0.038385
		CHANNELS 3 Zrotation Yrotation Xrotation
		JOINT upperback
		{
			OFFSET 0.004488 0.137956 0.026820
			CHANNELS 3 Zrotation Yrotation Xrotation
			JOINT chest
			{
				OFFSET -0.002265 0.056032 0.002855
				CHANNELS 3 Zrotation Yrotation Xrotation
				JOINT lowerneck
				{
					OFFSET -0.013390 0.211636 -0.033468
					CHANNELS 3 Zrotation Yrotation Xrotation
					JOINT upperneck
					{
						OFFSET 0.010113 0.088937 0.050410
						CHANNELS 3 Zrotation Yrotation Xrotation
						End Site
						{
							OFFSET 0.000000 0.000000 0.000000
						}
					}
				}
				JOINT lclavicle
				{
					OFFSET 0.071702 0.114000 -0.018898
					CHANNELS 3 Zrotation Yrotation Xrotation
					JOINT lshoulder
					{
						OFFSET 0.122921 0.045205 -0.019046
						CHANNELS 3 Zrotation Yrotation Xrotation
						JOINT lelbow
						{
							OFFSET 0.255332 -0.015649 -0.022946
							CHANNELS 3 Zrotation Yrotation Xrotation
							JOINT lwrist
							{
								OFFSET 0.265709 0.012698 -0.007375
								CHANNELS 3 Zrotation Yrotation Xrotation
								End Site
								{
									OFFSET 0.000000 0.000000 0.000000
								}
							}
						}
					}
				}
				JOINT rclavicle
				{
					OFFSET -0.082954 0.112472 -0.023707
					CHANNELS 3 Zrotation Yrotation Xrotation
					JOINT rshoulder
					{
						OFFSET -0.113228 0.046853 -0.008472
						CHANNELS 3 Zrotation Yrotation Xrotation
						JOINT relbow
						{
							OFFSET -0.260127 -0.014369 -0.031269
							CHANNELS 3 Zrotation Yrotation Xrotation
							JOINT rwrist
							{
								OFFSET -0.269108 0.006794 -0.006027
								CHANNELS 3 Zrotation Yrotation Xrotation
								End Site
								{
									OFFSET 0.000000 0.000000 0.000000
								}
							}
						}
					}
				}
			}
		}
	}
}
MOTION
Frames: 15
Frame Time: 0.033333
-0.290718 -1.909624 1.031865 -178.755580 1.145237 84.205227 3.006994 3.547589 8.729900 -3.771263 -3.467968 2.527876 4.121216 11.294304 -16.245626 0.000000 -0.000000 0.000000 0.316954 -3.432231 1.340001 0.886830 -1.664094 15.686522 0.144217 -9.206905 -20.082130 0.000000 -0.000000 0.000000 1.046619 -0.535810 4.756833 0.521122 -1.957636 4.341378 -0.973388 -1.343004 2.968639 3.375179 1.567368 1.560910 1.079911 -1.207123 12.203678 -29.362028 1.148204 6.905680 -57.014948 -5.950681 7.162877 10.578033 -28.854089 1.403960 -1.425429 -3.310226 -9.785569 26.288686 2.938575 7.019547 56.073936 2.671870 12.783858 -11.762917 29.444699 -2.776265 6.857950 2.138966 -9.825952 
-0.290593 -1.910134 1.031887 -178.706445 1.171766 84.222357 3.056623 3.653038 8.721248 -3.754258 -3.596394 2.422738 4.051701 11.243737 -16.175275 0.000000 -0.000000 0.000000 0.337204 -3.397605 1.375812 0.947603 -1.681587 15.528651 0.226282 -9.309014 -20.052502 0.000000 -0.000000 0.000000 1.076500 -0.655209 4.785150 0.444806 -1.892477 4.102498 -0.937366 -1.357917 3.232590 3.465618 1.604789 1.130973 0.969937 -1.258636 12.594526 -29.216867 1.202923 6.811709 -57.264479 -6.028220 7.235675 10.603983 -28.798951 1.595545 -1.302945 -3.301772 -9.863769 26.191263 2.932906 6.960827 56.202829 2.626682 12.978873 -11.855188 29.402110 -2.491863 6.531828 2.454404 -9.600905 
-0.290471 -1.910542 1.031920 -178.677242 1.186889 84.232819 3.086550 3.680791 8.698047 -3.751650 -3.628044 2.384185 4.024701 11.200448 -16.135838 0.000000 -0.000000 0.000000 0.356596 -3.411877 1.372016 0.954535 -1.719881 15.444381 0.212033 -9.305552 -20.031413 0.000000 -0.000000 0.000000 1.074335 -0.670976 4.806627 0.438152 -1.897410 4.013284 -0.922747 -1.383105 3.306968 3.490103 1.624338 0.968291 0.969220 -1.278775 12.685144 -29.188405 1.264806 6.729497 -57.354539 -6.069409 7.239593 10.549360 -28.748288 1.712637 -1.167813 -3.363425 -9.864250 26.179552 2.892832 6.921855 56.185257 2.540799 13.148616 -11.821370 29.362004 -2.015291 6.102386 2.901168 -9.255842 
-0.290299 -1.911094 1.031958 -178.658076 1.192264 84.236045 3.102658 3.684104 8.652368 -3.748948 -3.635220 2.394806 4.008443 11.172031 -16.108060 0.000000 -0.000000 0.000000 0.374286 -3.401278 1.344137 0.952779 -1.759255 15.417095 0.206128 -9.307112 -20.016351 0.000000 -0.000000 0.000000 1.047377 -0.675900 4.850499 0.439974 -1.900808 3.975916 -0.910804 -1.395169 3.315102 3.520991 1.630543 0.885810 0.995711 -1.302618 12.649674 -29.177441 1.288917 6.677443 -57.392003 -6.094551 7.250334 10.537692 -28.751128 1.728560 -1.171798 -3.371837 -9.848010 26.167308 2.862231 6.864004 56.181443 2.536103 13.158031 -11.833323 29.354176 -2.019735 6.083124 2.928611 -9.259083 
-0.290208 -1.911584 1.031985 -178.600987 1.204370 84.235361 3.117373 3.665824 8.584966 -3.742157 -3.643544 2.447464 4.000181 11.136092 -16.096703 0.000000 -0.000000 0.000000 0.391879 -3.400243 1.325831 0.962826 -1.790363 15.402460 0.201643 -9.326426 -19.991209 0.000000 -0.000000 0.000000 1.026640 -0.691593 4.926415 0.451312 -1.929039 3.943002 -0.896122 -1.411192 3.313719 3.545849 1.627290 0.791965 1.006726 -1.323940 12.616760 -29.179758 1.282474 6.656882 -57.402577 -6.118794 7.254860 10.545831 -28.768057 1.732515 -1.168707 -3.385034 -9.847581 26.170583 2.867414 6.832559 56.161848 2.545304 13.163217 -11.843376 29.359222 -2.036307 6.072605 2.943792 -9.246590 
-0.290100 -1.912188 1.031990 -178.532532 1.234140 84.233090 3.147947 3.614292 8.502075 -3.738428 -3.639592 2.512961 3.983019 11.117214 -16.065052 0.000000 -0.000000 0.000000 0.426046 -3.391969 1.314872 0.985531 -1.822931 15.361355 0.178551 -9.376066 -19.947222 0.000000 -0.000000 0.000000 1.014165 -0.696399 4.954687 0.475029 -1.975364 3.963338 -0.879801 -1.431414 3.359917 3.571312 1.621989 0.647952 1.007944 -1.367609 12.592221 -29.162406 1.215867 6.649662 -57.442313 -6.182142 7.274187 10.588313 -28.763957 1.705627 -1.173303 -3.393357 -9.872239 26.140043 2.908977 6.794909 56.175374 2.584413 13.172477 -11.873438 29.352425 -2.055949 6.080181 2.936687 -9.267841 
-0.289973 -1.912731 1.032051 -178.500475 1.251173 84.228541 3.165052 3.582734 8.446745 -3.730226 -3.626550 2.547430 3.975465 11.103359 -16.042534 0.000000 -0.000000 0.000000 0.451082 -3.391627 1.305693 0.996999 -1.834928 15.326949 0.168288 -9.396447 -19.909601 0.000000 -0.000000 0.000000 0.992182 -0.696708 4.993464 0.485700 -2.002896 3.975294 -0.865764 -1.439911 3.383231 3.598475 1.617107 0.550763 1.022504 -1.407956 12.584065 -29.148940 1.166776 6.645346 -57.447666 -6.230623 7.285412 10.610948 -28.761446 1.676011 -1.170508 -3.401640 -9.877169 26.138358 2.942047 6.768693 56.196050 2.619637 13.176614 -11.896271 29.337033 -2.085428 6.085450 2.932088 -9.286778 
-0.289812 -1.913274 1.032101 -178.507687 1.257843 84.247841 3.173111 3.570599 8.376664 -3.722649 -3.607128 2.573564 3.966612 11.098822 -16.007331 0.000000 -0.000000 0.000000 0.475120 -3.379270 1.250993 0.990369 -1.860110 15.304004 0.169827 -9.398975 -19.883538 0.000000 -0.000000 0.000000 0.962737 -0.700594 5.056203 0.486914 -2.008176 3.933348 -0.851520 -1.434731 3.385589 3.616789 1.627249 0.482261 1.034657 -1.429012 12.599079 -29.125122 1.164406 6.631742 -57.447698 -6.254472 7.289763 10.624986 -28.770615 1.658213 -1.168985 -3.402045 -9.875205 26.137467 2.956007 6.751736 56.243232 2.639640 13.187454 -11.923291 29.341960 -2.120131 6.082819 2.936878 -9.310187 
-0.289697 -1.913685 1.032151 -178.526106 1.264323 84.264763 3.179654 3.568583 8.322887 -3.719761 -3.591095 2.590871 3.960044 11.101007 -15.991702 0.000000 -0.000000 0.000000 0.491101 -3.363745 1.207107 0.989444 -1.874637 15.287909 0.171897 -9.398176 -19.866767 0.000000 -0.000000 0.000000 0.944363 -0.701642 5.096682 0.486910 -2.007347 3.899170 -0.839943 -1.434101 3.392115 3.620993 1.639148 0.451745 1.035916 -1.436054 12.613315 -29.107091 1.173566 6.612664 -57.443304 -6.269447 7.288906 10.630592 -28.763583 1.650841 -1.161803 -3.399484 -9.868532 26.140645 2.951164 6.729923 56.275060 2.651988 13.203646 -11.932343 29.359360 -2.122920 6.069616 2.954341 -9.318458 
-0.289545 -1.914211 1.032201 -178.537890 1.272958 84.290556 3.191976 3.561350 8.249395 -3.719098 -3.579310 2.610004 3.956272 11.096444 -15.975730 0.000000 -0.000000 0.000000 0.508210 -3.356578 1.152077 0.996197 -1.882329 15.271828 0.177762 -9.391835 -19.853785 0.000000 -0.000000 0.000000 0.923105 -0.712074 5.165631 0.487027 -2.014360 3.837480 -0.827232 -1.440105 3.390180 3.621028 1.656889 0.445647 1.034745 -1.429910 12.630483 -29.084025 1.197825 6.590470 -57.422815 -6.271049 7.285348 10.629223 -28.772820 1.651479 -1.149729 -3.401731 -9.866745 26.157045 2.927610 6.704108 56.307507 2.662300 13.223972 -11.935638 29.405892 -2.120208 6.052190 2.973476 -9.328098 
-0.289302 -1.914848 1.032214 -178.558441 1.293236 84.322620 3.228410 3.550610 8.152875 -3.726042 -3.542639 2.652010 3.956418 11.085730 -15.940797 0.000000 -0.000000 0.000000 0.548284 -3.343858 1.064312 1.004329 -1.891105 15.280002 0.187630 -9.372827 -19.820810 0.000000 -0.000000 0.000000 0.893320 -0.709344 5.257402 0.494547 -2.019642 3.763905 -0.804804 -1.448419 3.395412 3.627107 1.712826 0.408538 1.027123 -1.399627 12.645128 -29.069534 1.221647 6.568953 -57.391830 -6.282006 7.276137 10.637264 -28.810546 1.621861 -1.138652 -3.400744 -9.874608 26.175203 2.900172 6.683300 56.334806 2.689238 13.251526 -11.946544 29.476421 -2.128487 6.042167 2.989529 -9.343037 
-0.289217 -1.915279 1.032221 -178.561520 1.315417 84.318148 3.252353 3.542608 8.115991 -3.721174 -3.539850 2.678813 3.956602 11.089683 -15.921700 0.000000 -0.000000 0.000000 0.580547 -3.322515 1.025093 1.004955 -1.907904 15.302049 0.177693 -9.381373 -19.814319 0.000000 -0.000000 0.000000 0.869230 -0.709856 5.309474 0.513692 -2.026161 3.760496 -0.784325 -1.449941 3.417782 3.642510 1.738305 0.392207 1.024527 -1.389535 12.640653 -29.067117 1.217495 6.556301 -57.381228 -6.308083 7.267478 10.672600 -28.818286 1.573627 -1.132079 -3.399504 -9.900363 26.189129 2.902671 6.680519 56.327919 2.715466 13.267677 -11.942025 29.484257 -2.123472 6.043238 2.992164 -9.342459 
-0.289128 -1.915622 1.032216 -178.555056 1.331466 84.311041 3.268797 3.534237 8.086949 -3.713008 -3.548710 2.707062 3.941854 11.096367 -15.902364 0.000000 -0.000000 0.000000 0.603722 -3.326970 0.987757 1.005540 -1.925148 15.329223 0.166025 -9.389707 -19.816817 0.000000 -0.000000 0.000000 0.835828 -0.704073 5.351517 0.528606 -2.034887 3.765237 -0.768228 -1.445018 3.436780 3.673465 1.740183 0.396535 1.042056 -1.414004 12.645484 -29.053956 1.204434 6.549138 -57.361504 -6.326481 7.269195 10.687238 -28.826711 1.545019 -1.117174 -3.393920 -9.915750 26.213196 2.909822 6.675418 56.326482 2.718201 13.272847 -11.944145 29.458015 -2.128016 6.025519 2.998950 -9.331546 
-0.289041 -1.915946 1.032226 -178.552148 1.337844 84.311313 3.276062 3.528110 8.045803 -3.708527 -3.529231 2.743642 3.945131 11.083971 -15.888155 0.000000 -0.000000 0.000000 0.615480 -3.323340 0.969255 1.009857 -1.937739 15.322138 0.158084 -9.390470 -19.805213 0.000000 -0.000000 0.000000 0.804184 -0.700801 5.404891 0.531695 -2.038796 3.736722 -0.760481 -1.438498 3.439953 3.700640 1.753058 0.411185 1.065408 -1.420258 12.667433 -29.028749 1.201584 6.553138 -57.343872 -6.333946 7.274532 10.684547 -28.830783 1.546660 -1.117735 -3.410358 -9.930000 26.228138 2.911275 6.683738 56.352258 2.706114 13.281974 -11.941744 29.406173 -2.118352 6.028836 3.001634 -9.333178 
-0.288994 -1.916120 1.032194 -178.558467 1.350525 84.308975 3.291623 3.526716 8.044450 -3.703627 -3.535518 2.735055 3.940252 11.091750 -15.869446 0.000000 -0.000000 0.000000 0.626938 -3.330010 0.971724 1.017267 -1.931662 15.296227 0.142846 -9.388713 -19.802191 0.000000 -0.000000 0.000000 0.789635 -0.692722 5.405017 0.533775 -2.039431 3.754368 -0.752383 -1.434774 3.448640 3.699767 1.769735 0.452478 1.080955 -1.398390 12.650111 -29.021788 1.196496 6.558020 -57.315960 -6.331760 7.267234 10.685026 -28.840879 1.527942 -1.102548 -3.405401 -9.952884 26.236312 2.896165 6.694235 56.351501 2.676874 13.281855 -11.928340 29.426066 -2.095195 6.034069 2.991885 -9.337505 
